
<svg width="150" height="150" xmlns="http://www.w3.org/2000/svg" xmlns:svg="http://www.w3.org/2000/svg">
 <style type="text/css">.st0{fill-rule:evenodd;clip-rule:evenodd;fill:#82AFDE;}
	.st1{fill-rule:evenodd;clip-rule:evenodd;fill:#1F3564;}
	.st2{fill:#13110C;}
 </style>
 <g>
  <title>Layer 1</title>
  <g stroke="null" id="svg_1">
   <g transform="translate(50,50)">
    <g transform="scale(0.5)">
     <g transform="translate(-50,-50)">
      <g transform="rotate(288.489 50 50)">
       <animateTransform attributeName="transform" type="rotate" repeatCount="indefinite" values="360 50 50;0 50 50" keyTimes="0;1" dur="1s" keySplines="0.7 0 0.3 1" calcMode="spline"></animateTransform>
       <path fill="black" stroke="null" id="svg_2" d="m63.604997,83.849169c-24.94,-32.93 22.53,-74.4 46.89,-40.38l-9.2,3.37c-24.2,-18.59 -52.07,6.68 -35.79,35.1l-1.9,1.91z" class="st0"/>
       <path fill="black" stroke="null" id="svg_3" d="m63.434997,84.019169c-31.55,-39.47 16.35,-80.79 52.82,-46.3l-5.75,5.74c-4.98,-5.17 -11.88,-8.55 -19.6,-9.13c-16.61,-1.08 -30.92,11.43 -32.07,28.04c-0.51,7.54 1.79,14.62 6,20.24l-1.4,1.41z" class="st1"/>
       <path stroke="null" id="svg_4" d="m92.804997,58.729169c31.68,39.4 -29.8,78.01 -52.55,45.27l12.33,-4.45c24.14,18.58 55.28,-11.25 38.99,-39.6l1.23,-1.22z" class="st0"/>
       <path fill="black" stroke="null" id="svg_5" d="m93.834997,57.699169c36.02,44.9 -18.52,92.03 -60.09,52.88l6.51,-6.58c5.75,5.88 13.54,9.77 22.41,10.35c18.84,1.28 35.26,-13.09 36.47,-31.99c0.57,-8.62 -2.05,-16.67 -6.9,-23.05l1.6,-1.61z" class="st1"/>
      </g>
     </g>
    </g>
   </g>
  </g>
 </g>
</svg>
