<?xml version="1.0" encoding="utf-8"?>
<!-- Generator: Adobe Illustrator 18.0.0, SVG Export Plug-In . SVG Version: 6.00 Build 0)  -->
<!DOCTYPE svg PUBLIC "-//W3C//DTD SVG 1.1//EN" "http://www.w3.org/Graphics/SVG/1.1/DTD/svg11.dtd">
<svg version="1.1" id="Layer_1" xmlns="http://www.w3.org/2000/svg" xmlns:xlink="http://www.w3.org/1999/xlink" x="0px" y="0px"
	 width="841.9px" height="595.3px" viewBox="0 0 841.9 595.3" enable-background="new 0 0 841.9 595.3" xml:space="preserve">
<g>
	<linearGradient id="SVGID_1_" gradientUnits="userSpaceOnUse" x1="420.945" y1="-271.9859" x2="420.945" y2="215.3079">
		<stop  offset="0" style="stop-color:#6ACCE6"/>
		<stop  offset="1" style="stop-color:#FBF5AD"/>
	</linearGradient>
	<rect x="0" fill="url(#SVGID_1_)" width="841.9" height="595.3"/>
	<g opacity="0.3">
		<polygon fill="#FFFFFF" points="0,58.4 841.9,136.3 841.9,165.6 0,152.9 		"/>
		<polygon fill="#FFFFFF" points="0,19.7 841.9,88.3 841.9,98.4 0,52.2 		"/>
	</g>
	<path fill="#9DD2A2" d="M841.9,135.8c-14.4-8.8-30.2,6.7-30.2,6.7s-9.1-28.5-21.8-35.1c-12.8-6.6-24.6,8-24.6,8s-0.9-6.6-10.9-9.7
		s-23.7,14.5-23.7,14.5s-10.9-21.3-21.9-24.9c-10.9-3.6-21.9,12.1-21.9,12.1S677,92.2,660,91.9c-17-0.3-23.7,15.5-23.7,15.5
		s-16.1-14.8-33.4-16.7c-17.3-1.8-26.9,16.7-26.9,16.7s3.9-11.5-10.6-11.3s-16.1,11.3-16.1,11.3s-15.6-25.6-31.2-23
		c-15.6,2.7-32.1,27-32.1,27s-10.8-18.9-20.9-20.7c-10-1.8-11.9,16.7-11.9,16.7s-3.4-3.9-12.2-3.4s-13.8,16.2-13.8,16.2
		s-4.7-21.7-19.8-17.6c-15.1,4.1-18.9,17.6-18.9,17.6s-6.7-10.7-17.9-12.8s-14,18-14,18s-5.5-9.4-15.5-5.2
		c-10,4.3-8.2,15.2-8.2,15.2s-2.7-4.6-16.4-0.9c-13.7,3.6-39.2,40.1-39.2,40.1h564.6V135.8z"/>
	<path fill="#74C274" d="M337.2,174.6c0,0,14.6-22.6,26.3-30.6c11.7-8,24.9,5,24.9,5s7.2-22.8,17.5-28.1c10.2-5.3,19.7,6.4,19.7,6.4
		s0.7-5.3,8.8-7.7s19,11.6,19,11.6s8.8-17,17.5-19.9c8.8-2.9,17.5,9.7,17.5,9.7s7.9-12.1,21.4-12.4c13.6-0.2,18.9,12.4,18.9,12.4
		s12.9-11.9,26.7-13.3s21.5,13.3,21.5,13.3s-3.1-9.2,8.5-9c11.6,0.2,12.8,9,12.8,9s12.5-20.5,24.9-18.4
		c12.5,2.1,25.7,21.6,25.7,21.6s8.7-15.1,16.7-16.6c8-1.5,9.5,13.3,9.5,13.3s2.8-3.1,9.8-2.7c7,0.4,11.1,13,11.1,13
		s3.7-17.4,15.8-14.1c12.1,3.3,15.2,14.1,15.2,14.1s5.3-8.6,14.3-10.2c9-1.7,11.2,14.4,11.2,14.4s4.4-7.6,12.4-4.1
		c8,3.4,6.6,12.2,6.6,12.2s2.2-3.6,13.1-0.7c10.9,2.9,31.4,32.1,31.4,32.1H337.2z"/>
	<linearGradient id="SVGID_2_" gradientUnits="userSpaceOnUse" x1="421" y1="256.24" x2="421" y2="119.2363">
		<stop  offset="0" style="stop-color:#6D953E"/>
		<stop  offset="1" style="stop-color:#C3D82E"/>
	</linearGradient>
	<path fill="url(#SVGID_2_)" d="M842,281V153.4c0,0-286.2-46.1-841.8,23.7L0,281H842z"/>
	<linearGradient id="SVGID_3_" gradientUnits="userSpaceOnUse" x1="420.945" y1="594.4221" x2="420.945" y2="343.4501">
		<stop  offset="0" style="stop-color:#0091BF"/>
		<stop  offset="0.5235" style="stop-color:#63CDF6"/>
		<stop  offset="1" style="stop-color:#B4E2F1"/>
	</linearGradient>
	<rect x="0" y="427.9" fill="url(#SVGID_3_)" width="841.9" height="167.3"/>
	<linearGradient id="SVGID_4_" gradientUnits="userSpaceOnUse" x1="420.945" y1="292.8168" x2="420.945" y2="118.2598">
		<stop  offset="0" style="stop-color:#0091BF"/>
		<stop  offset="0.5235" style="stop-color:#63CDF6"/>
		<stop  offset="1" style="stop-color:#B4E2F1"/>
	</linearGradient>
	<rect x="0" y="177" fill="url(#SVGID_4_)" width="841.9" height="116.4"/>
	<rect x="37.8" y="225.4" fill="#DFD0A3" width="766.3" height="218"/>
	<rect x="37.8" y="225.4" fill="#D6C89B" width="766.3" height="27"/>
	<g>
		<polygon fill="#EAE0C5" points="638.5,291.6 680.5,288.6 682.5,306.6 637.5,306.6 		"/>
		<polygon fill="#EAE0C5" points="705.2,273.6 747.2,270.6 749.2,288.6 704.2,288.6 		"/>
		<polygon fill="#EAE0C5" points="420.2,396.9 378.2,393.9 376.2,411.9 421.2,411.9 		"/>
		<polygon fill="#EAE0C5" points="511.9,273.6 469.9,270.6 467.9,288.6 512.9,288.6 		"/>
		<polygon fill="#EAE0C5" points="513.4,328.4 555.4,325.4 557.4,343.4 512.4,343.4 		"/>
		<polygon fill="#EAE0C5" points="616,365.7 658,362.7 660,380.7 615,380.7 		"/>
		<polygon fill="#EAE0C5" points="207.2,352.7 165.2,349.7 163.2,367.7 208.2,367.7 		"/>
		<polygon fill="#EAE0C5" points="238.2,291.6 280.2,288.6 282.2,306.6 237.2,306.6 		"/>
		<polygon fill="#EAE0C5" points="220.8,273.6 178.8,270.6 176.8,288.6 221.8,288.6 		"/>
	</g>
	<g>
		<rect x="271.8" y="209.7" fill="#7A6047" width="23.6" height="31.3"/>
		<rect x="317.6" y="209.7" fill="#7A6047" width="23.6" height="31.3"/>
		<rect x="363.4" y="209.7" fill="#7A6047" width="23.6" height="31.3"/>
		<rect x="409.2" y="209.7" fill="#7A6047" width="23.6" height="31.3"/>
		<rect x="454.9" y="209.7" fill="#7A6047" width="23.6" height="31.3"/>
		<rect x="500.7" y="209.7" fill="#7A6047" width="23.6" height="31.3"/>
		<rect x="546.5" y="209.7" fill="#7A6047" width="23.6" height="31.3"/>
	</g>
	<g>
		<g>
			<rect x="259.7" y="298.3" fill="#7A6047" width="47.3" height="102.9"/>
			<rect x="351.5" y="298.3" fill="#7A6047" width="47.3" height="102.9"/>
			<rect x="443.2" y="298.3" fill="#7A6047" width="47.3" height="102.9"/>
			<rect x="534.9" y="298.3" fill="#7A6047" width="47.3" height="102.9"/>
		</g>
		<g>
			<linearGradient id="SVGID_5_" gradientUnits="userSpaceOnUse" x1="264.3778" y1="517.926" x2="264.3778" y2="388.7929">
				<stop  offset="0" style="stop-color:#0091BF"/>
				<stop  offset="0.5235" style="stop-color:#63CDF6"/>
				<stop  offset="1" style="stop-color:#B4E2F1"/>
			</linearGradient>
			<path fill="url(#SVGID_5_)" d="M307,349.7v93.7h-85.2l37.9-93.7C259.7,349.7,285.8,329,307,349.7z"/>
			<linearGradient id="SVGID_6_" gradientUnits="userSpaceOnUse" x1="577.5122" y1="517.926" x2="577.5122" y2="388.7929">
				<stop  offset="0" style="stop-color:#0091BF"/>
				<stop  offset="0.5235" style="stop-color:#63CDF6"/>
				<stop  offset="1" style="stop-color:#B4E2F1"/>
			</linearGradient>
			<path fill="url(#SVGID_6_)" d="M534.9,349.7v93.7h85.2l-37.9-93.7C582.2,349.7,556,329,534.9,349.7z"/>
			<linearGradient id="SVGID_7_" gradientUnits="userSpaceOnUse" x1="471.9093" y1="517.926" x2="471.9093" y2="388.7929">
				<stop  offset="0" style="stop-color:#0091BF"/>
				<stop  offset="0.5235" style="stop-color:#63CDF6"/>
				<stop  offset="1" style="stop-color:#B4E2F1"/>
			</linearGradient>
			<path fill="url(#SVGID_7_)" d="M490.4,349.7c4.5,35.5,12.6,62.5,17.3,93.7c-22.9,0-48.8,0-71.7,0c2.4-31.2,4.5-59.9,6.6-93.7
				C457.7,341.6,474.7,343.7,490.4,349.7z"/>
			<linearGradient id="SVGID_8_" gradientUnits="userSpaceOnUse" x1="369.9074" y1="517.926" x2="369.9074" y2="388.7929">
				<stop  offset="0" style="stop-color:#0091BF"/>
				<stop  offset="0.5235" style="stop-color:#63CDF6"/>
				<stop  offset="1" style="stop-color:#B4E2F1"/>
			</linearGradient>
			<path fill="url(#SVGID_8_)" d="M351.4,349.7c-4.5,35.5-12.6,62.5-17.3,93.7c22.9,0,48.8,0,71.7,0c-2.4-31.2-4.5-59.9-6.6-93.7
				C384.2,341.6,367.1,343.7,351.4,349.7z"/>
		</g>
		<g>
			<path fill="#FFFFFF" d="M259.7,349.7l-37.9,93.7l36.7-84.2c0.8-1.9,2.3-3.6,4.1-4.6c7.4-4.3,27.5-13.5,44.4,1.8v-6.7
				C285.8,329,259.7,349.7,259.7,349.7z"/>
			<path fill="#FFFFFF" d="M579.3,354.5c1.8,1.1,3.3,2.7,4.1,4.6l36.7,84.2l-37.9-93.7c0,0-26.1-20.7-47.3,0v6.7
				C551.8,341,571.9,350.2,579.3,354.5z"/>
			<path fill="#FFFFFF" d="M442.6,349.7c-2.1,33.8-4.2,62.5-6.6,93.7c2.2-27.1,4.2-52.1,6.2-80.8c0.3-4,2.9-7.6,6.8-8.8
				c11.3-3.7,23.5-2.7,35.2,0.6c3.8,1.1,6.5,4.3,7.1,8.1c4.6,30,12,53.7,16.4,80.9c-4.8-31.2-12.8-58.2-17.3-93.7
				C474.7,343.7,457.7,341.6,442.6,349.7z"/>
			<path fill="#FFFFFF" d="M351.4,349.7c-4.5,35.5-12.6,62.5-17.3,93.7c4.5-27.2,11.8-50.9,16.4-80.9c0.6-3.9,3.4-7.1,7.1-8.1
				c11.7-3.3,23.9-4.3,35.2-0.6c3.8,1.2,6.5,4.8,6.8,8.8c2,28.8,4,53.7,6.2,80.8c-2.4-31.2-4.5-59.9-6.6-93.7
				C384.2,341.6,367.1,343.7,351.4,349.7z"/>
		</g>
	</g>
	<path fill="#FFFFFF" d="M211,443.4c0,0.1,12.8-18.9,23-25.9c10.2-6.9,21.8,5.3,21.8,5.4c0,0,6.4-20.8,15.3-25.7
		c9-4.9,17.3,6.2,17.3,6.3c0,0,0.6-5,7.7-7.2c7-2.3,16.6,11.3,16.6,11.4c0,0,7.7-16.3,15.4-19.1c7.7-2.8,15.4,9.5,15.4,9.5
		c0,0,6.9-11.8,18.8-12c11.9-0.2,16.6,12.2,16.6,12.2c0,0,11.3-11.7,23.5-13.1c12.2-1.4,18.8,13.2,18.8,13.2c0,0-2.7-9.1,7.5-8.9
		c10.2,0.2,11.3,8.9,11.3,8.9c0,0,10.9-20.3,21.9-18.2c10.9,2.1,22.6,21.2,22.6,21.2c0,0,7.6-14.9,14.6-16.3
		c7-1.4,8.3,12.9,8.3,12.9c0,0,2.4-3,8.6-2.7c6.2,0.3,9.7,12.4,9.7,12.4c0,0,3.3-16.8,13.9-13.7c10.6,3.1,13.3,13.2,13.3,13.2
		c0,0,4.7-8.2,12.6-9.9c7.9-1.6,9.8,13.3,9.8,13.2c0,0,3.8-7.1,10.9-4.1c7,3,5.8,11,5.8,11c0,0,1.9-3.4,11.5-1.1
		c9.6,2.5,27.5,27.2,27.5,27C491.1,454.4,350.8,454.4,211,443.4z"/>
	<path opacity="0.3" fill="#FFFFFF" d="M150.1,457.4c0,0,221.9-1,286,27s-332-5-332-5L150.1,457.4z"/>
	<path opacity="0.3" fill="#FFFFFF" d="M726.7,470.4c0,0-124.7,32.4-283.6,41.2c-159,8.8-348-20.6-348-20.6l-46,4.7
		c0,0,122,15.7,141,39.7c16.4,20.8-146,5.6-190.1,1.1v58.7h841.9V482.9L726.7,470.4z M570.1,569.4c0,0-57.8,1-69.4-12
		c-11.6-13,125.5-35.1,203.5-24.6S840.1,573.4,570.1,569.4z"/>
	<path opacity="0.3" fill="#FFFFFF" d="M566,484.6c-42.4,5.7-117-6.3-110.7-13.4c6.3-7.1,37.7-6.5,37.7-6.5
		C639.9,462.5,608.4,478.8,566,484.6z"/>
	<g>
		<path fill="#636028" d="M0,184.4c0,0,138.8,74,221.8,259c0,0-84.6,70.6-221.8,82L0,184.4z"/>
		
			<linearGradient id="SVGID_9_" gradientUnits="userSpaceOnUse" x1="1351.11" y1="515.3992" x2="1351.11" y2="244.1336" gradientTransform="matrix(-1 0 0 1 1462 0)">
			<stop  offset="0" style="stop-color:#6D953E"/>
			<stop  offset="1" style="stop-color:#C3D82E"/>
		</linearGradient>
		<path fill="url(#SVGID_9_)" d="M0,184.4c0,0,138.8,74,221.8,259c0,0-84.6,60.3-221.8,71.6L0,184.4z"/>
		<path fill="#C0D72F" d="M112.2,276.9c-3.4-3.7-6.8-7.3-10.2-10.8c-39,17.7-80.5,21.6-101.9,22.4v23.6
			c63.2,11.5,115.1,7.2,144.3,2.6c-4.1-5.2-8.1-10.2-12.2-15.1c-22.7,1.5-53.6,2.2-51-5.9C83.2,287.2,98.2,281.2,112.2,276.9z"/>
		<g>
			<path fill="#C0D72F" d="M169,348.6c-2.2-3.2-4.3-6.3-6.5-9.4C138.3,356,90.7,376.9,0,383.3v27.9C81,405.8,138.3,372.1,169,348.6z
				"/>
			<path fill="#C0D72F" d="M0,428.2v30.4c42.5,2.1,146.3,2.5,211.8-36.4c-4-8-8-15.8-12.2-23.4C132.9,424.1,43.5,428,0,428.2z"/>
		</g>
	</g>
	<g>
		<path fill="#636028" d="M841.9,184.4c0,0-138.8,74-221.8,259c0,0,84.6,70.6,221.8,82V184.4z"/>
		<linearGradient id="SVGID_10_" gradientUnits="userSpaceOnUse" x1="731" y1="515.3992" x2="731" y2="244.1336">
			<stop  offset="0" style="stop-color:#6D953E"/>
			<stop  offset="1" style="stop-color:#C3D82E"/>
		</linearGradient>
		<path fill="url(#SVGID_10_)" d="M841.9,184.4c0,0-138.8,74-221.8,259c0,0,84.6,60.3,221.8,71.6V184.4z"/>
		<path fill="#C0D72F" d="M841.9,255.5v-17.9c-25.8,2.4-50.3,1-70.4-1.6c-13.9,12.3-29,26.9-44.6,43.9c35.7,7.9,84.6,20.6,66.2,26.6
			c-17,5.6-57.5,1.3-86.8-2.9c-5.5,6.7-11,13.6-16.4,20.9c61.4,8.3,120.9,2.7,152-1.6v-40.4c-21.4-4.7-45.8-11.3-43.2-16.6
			C801.1,261.3,822.2,257.8,841.9,255.5z"/>
		<path fill="#C0D72F" d="M669.2,354.2c-6,9.1-12,18.6-17.8,28.6c30.8,16.3,97.3,46,190.5,57.7v-71.3
			C809.6,370.4,742.4,370.4,669.2,354.2z"/>
	</g>
	<g>
		<linearGradient id="SVGID_11_" gradientUnits="userSpaceOnUse" x1="135.6666" y1="271.2356" x2="153.5744" y2="127.8895">
			<stop  offset="0" style="stop-color:#6D953E"/>
			<stop  offset="1" style="stop-color:#C3D82E"/>
		</linearGradient>
		<path fill="url(#SVGID_11_)" d="M72.6,165.3c0,0-14,22,22.7,42.1S221,228,222.3,199.9c1.1-23.6-3.2-59.4-44.2-73.9
			S91.7,130.8,72.6,165.3z"/>
		<g>
			<path fill="#C0D72F" d="M222.4,193.1c0-3.1-0.2-6.3-0.5-9.7c-25.4-0.2-77.4-6.4-121.5-47.7c-7.5,4.9-14.2,10.8-19.7,17.6
				C102.5,172.3,155.6,209.6,222.4,193.1z"/>
			<path fill="#C0D72F" d="M216.5,160.7c-5.9-14.2-17.3-27.3-38.4-34.8c-19.9-7.1-40.8-6.1-59.3,0.6
				C135.3,142,166.3,161.7,216.5,160.7z"/>
		</g>
		<path fill="#9D6527" d="M118.7,177c0,0,5.7,29.5,0,37.5c-5.7,7.9-39.5,3.4-49.6,7.1c-10.1,3.7-26.6,29.1-26.6,29.1
			s2.8,15.4,15.4,15.4c0,0,13.7-33.7,24-35.8s31.4,6.5,48.9,3.6s34.3-36.3,34.3-36.3l-8.4-3.3c0,0-14.2,27.2-22.1,27.3
			c-7.9,0.1-3.9-44.6-3.9-44.6H118.7z"/>
		<g>
			<path fill="#8A5523" d="M59.4,246.5c5.8-1.2,4.2-12,2.3-19.8c-4.7,4.4-9.7,10.6-13.4,15.7C51.3,245.1,55.2,247.4,59.4,246.5z"/>
			<path fill="#8A5523" d="M77,220.2c-2.2,0.2-4.2,0.4-5.9,0.8c0.7,4.2,2,9.1,4,14.1c2.1-2.4,4.3-4.1,6.3-4.7
				C79.8,227.3,78.2,223.9,77,220.2z"/>
			<path fill="#8A5523" d="M126.9,234.4c-3.5-3.7-10.5-10.7-16.5-16c-4.8,0.9-11,1.2-17.3,1.4c1.3,2.9,2.7,6.8,4,11.6
				c2.8,0.5,5.8,1,8.9,1.5c-0.7-3.6-0.7-6.5,0.5-7.3c2.2-1.3,5.8,3.8,8.5,8.5C119,234.5,123,234.7,126.9,234.4z"/>
		</g>
	</g>
</g>
</svg>
