<?xml version="1.0" encoding="utf-8"?>
<!-- Generator: Adobe Illustrator 26.2.1, SVG Export Plug-In . SVG Version: 6.00 Build 0)  -->
<svg version="1.1" id="Capa_1" xmlns="http://www.w3.org/2000/svg" xmlns:xlink="http://www.w3.org/1999/xlink" x="0px" y="0px" width="150" height="150"
	 viewBox="0 0 318.53 220.49" style="enable-background:new 0 0 318.53 220.49;" xml:space="preserve">
<style type="text/css">
	.st0{
    fill:#193B66;
    filter: drop-shadow(-2px 6px 2px #FFFFFF);
  }
	.st1{
    fill:#75A8DB;
    filter: drop-shadow(-16px 12px 4px #FFFFFF);
  }
  .st11{
    fill:#75A8DB;
  }
	.st2{fill:#E20E17;}
</style>
<g>
	<g>
		<g>
			<g>
				<g>
					<g>
						<path class="st0" d="M182.95,85.71c1.05-0.09,2.12,0.02,3.16,0.16c1.05,0.15,2.09,0.35,3.12,0.62
							c2.06,0.51,4.07,1.19,6.04,1.98c3.93,1.57,7.7,3.54,11.31,5.71c0.9,0.55,1.78,1.13,2.67,1.69l1.33,0.85
							c0.44,0.29,0.86,0.6,1.29,0.9l2.58,1.81c0.85,0.62,1.67,1.27,2.51,1.9c0.82,0.64,1.68,1.27,2.48,1.92l2.4,1.91
							c1.61,1.26,3.19,2.53,4.8,3.76c3.21,2.47,6.43,4.87,9.75,7.04c3.3,2.17,6.72,4.09,10.29,5.55c3.57,1.45,7.35,2.36,11.29,2.63
							c1.97,0.15,3.98,0.13,6.01,0c2.03-0.13,4.08-0.39,6.16-0.68c-1.84,1.01-3.77,1.85-5.79,2.52c-2.01,0.68-4.11,1.18-6.26,1.48
							c-4.31,0.59-8.82,0.23-13.07-0.93c-4.27-1.14-8.24-3.03-11.97-5.16c-1.84-1.1-3.64-2.25-5.39-3.45
							c-1.74-1.22-3.44-2.46-5.09-3.76c-1.64-1.31-3.29-2.6-4.86-3.97l-4.68-4.03c-3.06-2.67-6.18-5.25-9.36-7.76
							c-3.18-2.5-6.45-4.89-9.85-7.11c-1.7-1.12-3.44-2.15-5.23-3.13c-0.45-0.23-0.9-0.48-1.36-0.7c-0.46-0.22-0.92-0.46-1.39-0.66
							C184.91,86.38,183.96,86,182.95,85.71z"/>
					</g>
					<g>
						<path class="st0" d="M165.65,90.37c0.55-0.18,1.14-0.21,1.73-0.22c0.58,0,1.17,0.03,1.75,0.09c1.16,0.13,2.31,0.37,3.44,0.68
							c2.26,0.6,4.44,1.44,6.56,2.38c4.24,1.9,8.23,4.27,12.07,6.81c0.96,0.64,1.91,1.29,2.85,1.95c0.93,0.67,1.87,1.34,2.78,2.03
							l1.38,1.03l1.36,1.06c0.91,0.71,1.8,1.42,2.69,2.15c0.9,0.73,1.75,1.44,2.61,2.15c0.86,0.71,1.73,1.4,2.59,2.1
							c1.73,1.39,3.47,2.76,5.24,4.08c1.76,1.33,3.54,2.63,5.35,3.86c1.8,1.25,3.64,2.44,5.5,3.56c1.86,1.13,3.76,2.18,5.68,3.16
							c1.94,0.95,3.9,1.84,5.91,2.6c4.01,1.54,8.21,2.58,12.56,2.96c2.17,0.2,4.37,0.22,6.6,0.09c2.22-0.13,4.46-0.41,6.72-0.8
							c-4.04,2.15-8.59,3.5-13.29,3.95c-4.71,0.46-9.54-0.04-14.14-1.23c-4.62-1.19-9.01-3.05-13.14-5.26
							c-2.08-1.09-4.06-2.33-6.03-3.58c-1.96-1.27-3.84-2.63-5.71-4c-1.85-1.4-3.64-2.85-5.42-4.32c-0.88-0.75-1.75-1.5-2.61-2.26
							c-0.86-0.77-1.73-1.53-2.54-2.27c-3.3-3.01-6.66-5.94-10.07-8.81c-3.42-2.85-6.9-5.62-10.54-8.15
							c-1.82-1.27-3.69-2.45-5.64-3.52c-0.97-0.52-1.97-1.02-3-1.43C167.85,90.82,166.79,90.44,165.65,90.37z"/>
					</g>
					<g>
						<path class="st0" d="M119.73,91.2c14.75-5.96,33.02-1.61,45.72,6.77c26.19,17.29,42.65,34.93,63.86,41.62
							c11.32,3.59,18.05,1.98,18.05,1.98s-18.81,7.76-38.63-3.76c-31.72-18.37-31.92-25.76-59.05-40.27
							C133.61,88.95,119.73,91.2,119.73,91.2z"/>
					</g>
					<g>
						<path class="st0" d="M102.97,97.43c15.7-5.51,33.97-1.52,46.54,7.03c26.02,17.72,43.6,35.03,63.35,41.52
							c11.27,3.71,17.53,1.95,17.53,1.95s-18.7,8.04-38.24-3.92c-30.15-18.44-30.91-25.43-58.04-39.94
							C118.04,95.49,102.97,97.43,102.97,97.43z"/>
					</g>
				</g>
				<g>
					<path class="st1" d="M78.26,114c14.93-7.84,26.61-15.24,45.28-7.19c32.49,14,51.85,39.26,74.7,46.55
						c10.69,3.41,22.53,0.77,22.53,0.77s-21.02,15.72-42.67,6.75c-24.77-10.26-37.95-26.74-66.15-40.46
						C90.44,109.96,78.26,114,78.26,114z"/>
				</g>
				<g>
					<path class="st11" d="M48.39,133.65c15.07-7.95,25.61-13.89,44.43-5.75c32.75,14.16,52.32,40.58,75.88,46.03
						c11.78,2.73,22.14,1.84,22.14,1.84s-26.83,14.11-48.66,5.04c-24.97-10.38-31.9-26.85-61.05-39.12
						C63.87,134.42,48.39,133.65,48.39,133.65z"/>
				</g>
			</g>
			<g>
      <animateTransform attributeName="transform" type="rotate" repeatCount="indefinite" values="0 150 145;360 150 145" keyTimes="0;1" dur="1.5s" keySplines="0.7 0 0.3 1" calcMode="spline"></animateTransform>
				<path class="st2" d="M248.21,110.76c-2.12-4.89-4.44-9.66-7-14.28c-1.3-2.3-2.63-4.57-4.05-6.77c-1.43-2.2-2.9-4.37-4.46-6.47
					c-6.23-8.39-13.62-15.83-22.05-21.73c-4.2-2.97-8.66-5.55-13.28-7.76c-2.32-1.1-4.68-2.1-7.07-3.01
					c-2.39-0.92-4.82-1.73-7.28-2.45c-9.85-2.85-20.13-4.23-30.39-4.21c-5.09,0.03-10.23,0.44-15.3,1.23
					c-5.08,0.79-10.11,1.9-15.02,3.38c-9.85,2.93-19.27,7.29-27.76,13.09c-8.48,5.8-15.99,13.09-22.05,21.55
					c-3.06,4.22-5.75,8.73-8.11,13.43c-1.19,2.35-2.28,4.76-3.3,7.2c-0.25,0.61-0.52,1.22-0.76,1.84l-0.72,1.86
					c-0.24,0.62-0.46,1.24-0.68,1.87l-0.35,0.93l-0.33,0.94c0.96-5.24,2.34-10.43,4.2-15.48c0.92-2.53,1.97-5.01,3.12-7.46
					c1.16-2.44,2.44-4.83,3.81-7.17c5.52-9.36,12.97-17.66,21.7-24.32c8.72-6.69,18.69-11.68,29.11-15.1
					c10.46-3.35,21.37-5.21,32.43-5.25c10.98,0.01,21.97,1.61,32.46,4.96c10.48,3.34,20.41,8.5,29.04,15.28
					c2.16,1.69,4.23,3.49,6.22,5.37c1.99,1.87,3.88,3.85,5.68,5.89c3.6,4.09,6.83,8.48,9.67,13.08c1.41,2.31,2.75,4.65,3.97,7.06
					c1.22,2.4,2.36,4.83,3.4,7.31c1.06,2.46,1.98,4.98,2.86,7.5l0.63,1.9c0.21,0.63,0.39,1.28,0.59,1.91
					C247.51,108.19,247.85,109.48,248.21,110.76z"/>
			</g>
		</g>
	</g>
</g>
</svg>
